<?xml version="1.0" encoding="UTF-8"?>
<svg id="Layer_2" data-name="Layer 2" xmlns="http://www.w3.org/2000/svg" viewBox="0 0 535.63 535.63">
  <defs>
    <style>
      .cls-1 {
        fill: #fff;
      }

      .cls-1, .cls-2 {
        stroke-width: 0px;
      }

      .cls-2 {
        fill: #231f20;
      }
    </style>
  </defs>
  <g id="Layer_1-2" data-name="Layer 1">
    <g>
      <path class="cls-1" d="m535.63,535.63H0V0h535.63c0,10.27,0,20.55,0,30.82,0,168.27,0,336.54,0,504.8Z"/>
      <g>
        <path class="cls-2" d="m169.49,190.61c-41.62,55.49-83.23,110.98-124.85,166.47h74.24c9.44,0,18.33-4.44,23.99-11.99,41.62-55.49,83.23-110.98,124.85-166.47h-74.24c-9.44,0-18.33,4.44-23.99,11.99Z"/>
        <path class="cls-2" d="m237.52,268.19c11.05,16.57,22.09,33.14,33.14,49.7,11.07,16.61-.83,38.85-20.79,38.85h-71.38c19.68-29.52,39.36-59.04,59.04-88.56Z"/>
        <path class="cls-2" d="m433.69,312.47h-121.35c8.66,11.54,17.31,23.08,25.97,34.62,4.72,6.29,12.13,10,19.99,10h121.35c-8.66-11.54-17.31-23.08-25.97-34.62-4.72-6.29-12.13-10-19.99-10Z"/>
        <path class="cls-2" d="m323.49,245.5c3.08-4.1,6.16-8.19,9.23-12.29,4.72-6.28,12.12-9.98,19.98-9.98h45.03c9.44,0,18.32-4.44,23.99-11.99,8.16-10.87,16.3-21.74,24.46-32.62h-118.85c-9.45,0-18.33,4.44-23.99,11.99-8.16,10.88-16.31,21.75-24.47,32.62-5.58,7.43-11.16,14.85-16.73,22.27h0c7.98,11.34,15.96,22.67,23.94,34.01,4.68,6.65,12.3,10.61,20.43,10.61,40.98,0,81.96,0,122.94,0-8.66-11.54-17.31-23.08-25.97-34.62-4.72-6.29-12.13-10-19.99-10"/>
      </g>
    </g>
  </g>
</svg>